<svg width="50" height="52" viewBox="0 0 50 52" fill="none" xmlns="http://www.w3.org/2000/svg">
<path d="M20.7777 0.527473C26.3918 -0.621054 32.2296 0.117781 37.3802 2.62904C41.2896 4.53529 44.6376 7.38245 47.14 10.8868L41.8294 10.8556L42.4935 12.0206L37.015 15.0099L34.4203 11.7667L35.9837 9.31068C36.4676 9.19542 36.8284 8.76139 36.8285 8.24232C36.828 7.67397 36.3957 7.20627 35.8421 7.14954L35.7298 7.14368C35.123 7.14368 34.6307 7.63569 34.6302 8.24232C34.6302 8.37761 34.6548 8.50737 34.6996 8.62708L32.9193 11.4259L32.641 11.8634L32.9642 12.2687L36.263 16.3908L36.6419 16.8644L37.1761 16.5743L43.222 13.2765L43.0667 12.9904L43.5579 12.7286L42.7376 11.1915L49.6654 11.4298L47.8363 14.3722L46.0072 17.3156L45.1927 15.7902L44.8392 15.9777L44.7201 15.8585L44.4447 16.1329L44.4876 16.1759L39.4749 18.6134L39.4242 18.4757L37.7757 19.0929C35.3699 15.3663 31.1806 12.8978 26.4144 12.8976C18.9511 12.898 12.9008 18.9475 12.9007 26.4093C12.9009 33.871 18.9512 39.9197 26.4144 39.9201C31.2024 39.9198 35.4095 37.43 37.8099 33.6749L41.3558 35.9816L38.848 39.2404L34.0912 41.091L34.2425 41.4806C34.0774 41.3396 33.8701 41.246 33.6419 41.2228L33.5296 41.2169C32.9228 41.2171 32.4303 41.7089 32.43 42.3156C32.43 42.8846 32.863 43.353 33.4173 43.4093L33.5296 43.4152C34.0951 43.415 34.5603 42.9877 34.6214 42.4386L39.5638 40.5187L39.7523 40.4454L39.8753 40.2853L42.5755 36.7755L47.7708 40.1554C44.645 44.9572 40.0183 48.5929 34.6126 50.4943C29.2071 52.3953 23.3234 52.4565 17.8792 50.6691C12.4351 48.8813 7.73377 45.3438 4.50814 40.6085C1.28258 35.8729 -0.287322 30.2034 0.0432994 24.4835C0.374046 18.7637 2.58648 13.3131 6.33627 8.9806C10.0861 4.64835 15.1637 1.67626 20.7777 0.527473ZM19.2386 40.6671C18.6317 40.6671 18.1394 41.1591 18.139 41.7658C18.139 42.335 18.5718 42.8034 19.1263 42.8595L19.2386 42.8654C19.4078 42.8653 19.5672 42.8254 19.7103 42.757L23.0736 46.8947L23.1986 47.049L23.3851 47.1183L28.6068 49.0411L28.8109 49.1163L29.0228 49.0675L37.2679 47.1437L37.2376 47.0177C37.3989 47.1479 37.5972 47.2339 37.8148 47.256L37.9271 47.2618C38.5341 47.2617 39.0257 46.7692 39.0257 46.1622C39.0254 45.5935 38.5935 45.1258 38.0394 45.0695L37.9271 45.0636C37.4711 45.0637 37.0789 45.3411 36.9124 45.7365L28.9046 47.6056L24.0726 45.8253L20.6253 41.5841L20.3343 41.8204C20.3352 41.8024 20.3372 41.784 20.3372 41.7658C20.3369 41.1971 19.9049 40.7294 19.3509 40.673L19.2386 40.6671ZM37.9271 46.0636C37.9818 46.0637 38.0254 46.108 38.0257 46.1622C38.0257 46.2167 37.982 46.2617 37.9271 46.2618C37.8722 46.2617 37.8275 46.2167 37.8275 46.1622C37.8278 46.1081 37.8724 46.0638 37.9271 46.0636ZM6.04623 34.6222C5.43924 34.6222 4.94688 35.114 4.94662 35.7208C4.94663 36.29 5.37942 36.7585 5.93392 36.8146L6.04623 36.8204C6.08451 36.8204 6.12224 36.8174 6.15951 36.8136L5.9476 37.1681L9.81185 39.4855L10.8392 43.591L10.9466 44.0226L11.3792 44.1222L14.9271 44.9406C15.0799 45.3028 15.4215 45.5664 15.8285 45.6076L15.9408 45.6134C16.5476 45.6131 17.0393 45.1205 17.0394 44.5138C17.0391 43.9451 16.607 43.4776 16.0531 43.421L15.9408 43.4152C15.6787 43.4152 15.4373 43.5063 15.2484 43.6593L15.2787 43.5333L12.137 42.8087L11.1468 38.8429L11.0736 38.5519L10.8158 38.3976L7.0599 36.1437C7.11422 36.0134 7.14486 35.8708 7.14486 35.7208C7.14462 35.152 6.71264 34.6844 6.15853 34.6281L6.04623 34.6222ZM15.9408 44.4152C15.9954 44.4155 16.0391 44.4597 16.0394 44.5138C16.0393 44.5681 15.9955 44.6131 15.9408 44.6134C15.8857 44.6134 15.8412 44.5683 15.8412 44.5138C15.8414 44.4595 15.8859 44.4152 15.9408 44.4152ZM33.5296 42.2169C33.5844 42.2171 33.628 42.2613 33.6283 42.3156C33.6283 42.37 33.5846 42.415 33.5296 42.4152C33.4747 42.415 33.43 42.37 33.43 42.3156C33.4303 42.2614 33.4749 42.2171 33.5296 42.2169ZM19.2386 41.6671C19.2932 41.6674 19.3368 41.7117 19.3372 41.7658C19.3372 41.8201 19.2935 41.8651 19.2386 41.8654C19.1835 41.8654 19.139 41.8203 19.139 41.7658C19.1394 41.7116 19.1838 41.6671 19.2386 41.6671ZM6.04623 35.6222C6.10101 35.6223 6.1446 35.6666 6.14486 35.7208C6.14485 35.7753 6.10116 35.8203 6.04623 35.8204C5.99117 35.8204 5.94663 35.7754 5.94662 35.7208C5.94688 35.6665 5.99132 35.6222 6.04623 35.6222ZM7.14584 16.4865C6.53895 16.4865 6.04665 16.9784 6.04623 17.5851C6.04623 17.7424 6.07945 17.8921 6.139 18.0275L4.26205 23.3917L4.11849 23.8019L4.41244 24.1212L7.24447 27.2101V31.674L7.51693 31.8917L10.265 34.09L10.4701 33.8322C10.4528 33.9094 10.4437 33.99 10.4437 34.0724C10.4438 34.6415 10.8766 35.11 11.431 35.1661L11.5433 35.172C12.1501 35.1717 12.6418 34.6791 12.6419 34.0724C12.6417 33.5037 12.2095 33.0361 11.6556 32.9796L11.5433 32.9738C11.375 32.9738 11.2153 33.0116 11.0726 33.0792L11.1712 32.9572L8.69467 30.9767V26.6466L8.50424 26.4386L5.77377 23.4611L7.46224 18.6378C7.91466 18.5016 8.24447 18.0819 8.24447 17.5851C8.24407 17.0165 7.81204 16.5488 7.25814 16.4923L7.14584 16.4865ZM11.5433 33.9738C11.5979 33.9741 11.6417 34.0183 11.6419 34.0724C11.6418 34.1266 11.598 34.1717 11.5433 34.172C11.4883 34.172 11.4438 34.1268 11.4437 34.0724C11.444 34.0181 11.4884 33.9738 11.5433 33.9738ZM7.14584 17.4865C7.2004 17.4867 7.24405 17.5311 7.24447 17.5851C7.24447 17.6395 7.20066 17.6844 7.14584 17.6847C7.09077 17.6847 7.04623 17.6396 7.04623 17.5851C7.04665 17.5309 7.09104 17.4865 7.14584 17.4865ZM26.9339 6.04505C26.4061 6.04522 25.9648 6.41711 25.8587 6.91322L22.848 9.42005L16.2738 8.89466L15.9398 8.86829L15.7025 9.10462L11.0638 13.7413L10.9935 13.7384C10.3866 13.7385 9.89423 14.2304 9.89389 14.837C9.89389 15.4062 10.3268 15.8746 10.8812 15.9308L10.9935 15.9367C11.6004 15.9363 12.0921 15.4439 12.0921 14.837C12.0921 14.8137 12.0897 14.7907 12.0882 14.7677L16.4906 10.3663L23.0287 10.8898L23.3236 10.9132L23.5501 10.7238L26.5931 8.18763C26.6662 8.21147 26.7427 8.22942 26.8216 8.23743L26.9339 8.24329C27.5407 8.24294 28.0324 7.7504 28.0326 7.14368C28.0323 6.57501 27.6002 6.10744 27.0462 6.05091L26.9339 6.04505ZM10.9935 14.7384C11.048 14.7388 11.0918 14.783 11.0921 14.837C11.0921 14.8914 11.0483 14.9363 10.9935 14.9367C10.9385 14.9365 10.8939 14.8915 10.8939 14.837C10.8942 14.7829 10.9387 14.7385 10.9935 14.7384ZM27.0706 2.42689L23.5404 4.86927L21.5648 5.85657L14.0677 5.32239L13.7708 5.30091L13.5443 5.49427L7.77279 10.4406L7.7767 10.4454L7.69564 10.4415C7.08866 10.4415 6.59631 10.9334 6.59603 11.5402C6.59603 12.1094 7.02882 12.5778 7.58334 12.6339L7.69564 12.6398C8.3025 12.6394 8.79428 12.147 8.79428 11.5402C8.79427 11.5192 8.79154 11.4984 8.79037 11.4777L14.2611 6.78919L21.6595 7.31751L21.8578 7.33216L24.2347 6.14368L24.2806 6.12122L24.3226 6.09193L27.6048 3.81849L30.8431 4.81458L30.8519 4.78333C30.996 5.16579 31.3473 5.44671 31.7689 5.48939L31.8812 5.49525C32.4881 5.49498 32.9798 5.0025 32.9798 4.39564C32.9795 3.827 32.5474 3.35931 31.9935 3.30286L31.8812 3.297C31.6453 3.297 31.4265 3.37169 31.2474 3.49818L31.2689 3.42884L27.6966 2.32923L27.3597 2.22572L27.0706 2.42689ZM7.69564 11.4415C7.75023 11.4419 7.79401 11.4861 7.79428 11.5402C7.79428 11.5945 7.7504 11.6394 7.69564 11.6398C7.64057 11.6398 7.59603 11.5947 7.59603 11.5402C7.59631 11.4859 7.64074 11.4415 7.69564 11.4415ZM35.7298 8.14368C35.7841 8.14429 35.828 8.18854 35.8285 8.24232C35.8284 8.29647 35.7843 8.34131 35.7298 8.34193C35.6748 8.34193 35.6302 8.29685 35.6302 8.24232C35.6307 8.18817 35.6751 8.14368 35.7298 8.14368ZM26.9339 7.04505C26.9885 7.0454 27.0323 7.08958 27.0326 7.14368C27.0324 7.19792 26.9886 7.24294 26.9339 7.24329C26.8791 7.2431 26.8344 7.19802 26.8343 7.14368C26.8346 7.08948 26.8792 7.04524 26.9339 7.04505ZM31.8812 4.297C31.9358 4.29727 31.9794 4.34158 31.9798 4.39564C31.9798 4.45002 31.936 4.49498 31.8812 4.49525C31.8261 4.49525 31.7816 4.45018 31.7816 4.39564C31.782 4.34141 31.8264 4.297 31.8812 4.297Z" fill="url(#paint0_linear_13_1759)"/>
<circle cx="25.9883" cy="25.9777" r="4.39808" fill="url(#paint1_linear_13_1759)"/>
<defs>
<linearGradient id="paint0_linear_13_1759" x1="24.8327" y1="0" x2="24.8327" y2="51.9663" gradientUnits="userSpaceOnUse">
<stop stop-color="#2A74C4"/>
<stop offset="1" stop-color="#14385E"/>
</linearGradient>
<linearGradient id="paint1_linear_13_1759" x1="25.9883" y1="21.5796" x2="25.9883" y2="30.3757" gradientUnits="userSpaceOnUse">
<stop stop-color="#2A74C4"/>
<stop offset="1" stop-color="#14385E"/>
</linearGradient>
</defs>
</svg>
